<?xml version="1.0" encoding="utf-8"?>
<!-- Generator: Adobe Illustrator 18.0.0, SVG Export Plug-In . SVG Version: 6.00 Build 0)  -->
<!DOCTYPE svg PUBLIC "-//W3C//DTD SVG 1.1//EN" "http://www.w3.org/Graphics/SVG/1.1/DTD/svg11.dtd">
<svg version="1.1" xmlns="http://www.w3.org/2000/svg" xmlns:xlink="http://www.w3.org/1999/xlink" x="0px" y="0px"
	 viewBox="0 0 192 32" enable-background="new 0 0 192 32" xml:space="preserve">
<g id="HOME">
</g>
<g id="HOME_2">
	<g>
		<path fill="#FFFFFF" d="M17.7,0h5.8v30.4h-5.8v-2.8c-1.8,2.5-3.8,3.5-7.1,3.5C4.4,31.1,0.2,26.6,0.2,20c0-3.5,1.2-6.5,3.4-8.6
			c2-1.9,4.6-2.9,7.1-2.9c2.9,0,4.9,0.9,7,3V0z M6.3,20.1c0,3.6,2.4,6.4,5.7,6.4c3.2,0,5.6-2.8,5.6-6.4c0-3.8-2.4-6.6-5.6-6.6
			C8.7,13.4,6.3,16.2,6.3,20.1z"/>
		<path fill="#FFFFFF" d="M30.8,21.2c0.5,2.9,2.6,4.7,5.5,4.7c2.1,0,4-1,4.9-2.7l5.3,1.5c-2.1,4.1-5.8,6.4-10.2,6.4
			c-6.7,0-11.5-4.7-11.5-11.3c0-6.6,4.6-11.2,11.1-11.2c6.7,0,11.4,4.7,11.4,11.5l0,1.1H30.8z M41.4,17.9c-0.5-2.8-2.5-4.5-5.4-4.5
			c-2.8,0-4.6,1.6-5.2,4.5H41.4z"/>
		<path fill="#808080" d="M135.4,9.3l-6.9,21.1h-6l-3.7-12.9L115,30.4h-6.1l-6.8-21.1h5.9l4.2,12.8l3.7-12.8h5.6l3.8,12.8l4.3-12.8
			H135.4z"/>
		<path fill="#FFFFFF" d="M152.9,9.3h5.8v21.1h-5.8v-2.9c-2,2.5-4.2,3.6-7.3,3.6c-5.9,0-10.1-4.6-10.1-11c0-6.6,4.5-11.5,10.6-11.5
			c2.9,0,4.8,1,6.9,3.4V9.3z M141.6,20c0,3.7,2.4,6.5,5.6,6.5c3.2,0,5.8-3,5.8-6.6c0-3.7-2.4-6.4-5.8-6.4
			C143.9,13.4,141.6,16.1,141.6,20z"/>
		<path fill="#FFFFFF" d="M161.3,30.4V0h5.8v30.4H161.3z"/>
		<path fill="#FFFFFF" d="M186,0h5.8v30.4H186v-2.8c-1.8,2.5-3.8,3.5-7.1,3.5c-6.2,0-10.4-4.5-10.4-11.1c0-3.5,1.2-6.5,3.4-8.6
			c2-1.9,4.6-2.9,7.1-2.9c2.9,0,4.9,0.9,7,3V0z M174.7,20.1c0,3.6,2.4,6.4,5.7,6.4c3.2,0,5.6-2.8,5.6-6.4c0-3.8-2.4-6.6-5.6-6.6
			C177.1,13.4,174.7,16.2,174.7,20.1z"/>
		<polygon fill="#808080" points="102.1,9.3 97.8,22.1 94,9.3 88.5,9.3 84.8,22.1 81.6,12.4 78.6,21.5 81.5,30.4 87.6,30.4 
			91.4,17.4 95.1,30.4 101.1,30.4 108,9.3 		"/>
		<path fill="#FFFFFF" d="M80.4,9.3l-6.9,21.1h-6l-3.7-12.9L60,30.4h-6.1L47.1,9.3H53l4.2,12.8l3.7-12.8h5.6l3.8,12.8l4.3-12.8H80.4
			z"/>
	</g>
</g>
<g id="WHAT" display="none">
	<rect x="-56.6" y="-175.5" display="inline" fill="#4F5D7E" width="260" height="700"/>
</g>
<g id="WHAT_OVER_2.0_one" display="none">
</g>
<g id="WHAT_OVER_2.0_two" display="none">
</g>
<g id="WHAT_OVER_2.0_three" display="none">
</g>
<g id="WHAT_OVER_one_copy" display="none">
</g>
<g id="WHAT_OVER_ALL_copy" display="none">
</g>
<g id="WHAT_OVER_ALL_copy_2" display="none">
</g>
<g id="Grid" display="none">
</g>
<g id="_x31_6_Col_Grid" display="none" opacity="0.1" enable-background="new    ">
</g>
</svg>
