<?xml version="1.0" encoding="utf-8"?>
<!-- Generator: Adobe Illustrator 18.0.0, SVG Export Plug-In . SVG Version: 6.00 Build 0)  -->
<!DOCTYPE svg PUBLIC "-//W3C//DTD SVG 1.1//EN" "http://www.w3.org/Graphics/SVG/1.1/DTD/svg11.dtd">
<svg version="1.1" xmlns="http://www.w3.org/2000/svg" xmlns:xlink="http://www.w3.org/1999/xlink" x="0px" y="0px"
	 viewBox="0 0 512 512" enable-background="new 0 0 512 512" xml:space="preserve">
<g id="Developer">
</g>
<g id="SIDE_BAR">
	<g id="Icons_6_">
		<g id="Black_6_" transform="translate(-700.000000, -560.000000)">
			<path id="Github_2_" fill="#808080" d="M956,560c-141.3,0-256,115.1-256,257.1c0,113.5,73.3,209.9,175.1,243.9
				c12.8,2.3,17.5-5.6,17.5-12.4c0-6.1-0.2-22.3-0.4-43.7c-71.2,15.6-86.3-34.5-86.3-34.5c-11.6-29.6-28.4-37.6-28.4-37.6
				c-23.3-15.9,1.8-15.6,1.8-15.6c25.7,1.8,39.2,26.5,39.2,26.5c22.8,39.3,59.9,27.9,74.5,21.3c2.3-16.6,8.9-27.9,16.3-34.3
				c-56.8-6.5-116.6-28.5-116.6-127c0-28.1,10-51,26.3-69c-2.6-6.5-11.4-32.6,2.5-68c0,0,21.5-6.9,70.4,26.3
				c20.4-5.7,42.3-8.6,64.1-8.7c21.7,0.1,43.7,3,64.1,8.7c48.9-33.2,70.3-26.3,70.3-26.3c14,35.3,5.2,61.5,2.6,68
				c16.4,18,26.3,40.9,26.3,69c0,98.7-59.9,120.4-116.9,126.8c9.2,7.9,17.4,23.6,17.4,47.5c0,34.4-0.3,62.1-0.3,70.5
				c0,6.9,4.6,14.9,17.6,12.3c101.7-34,174.9-130.3,174.9-243.8C1212,675.1,1097.4,560,956,560"/>
		</g>
	</g>
</g>
<g id="WHO" display="none">
</g>
<g id="WHAT" display="none">
</g>
<g id="WHAT_OVER_ALL_single_03" display="none">
</g>
<g id="WHAT_OVER_ALL_single_02" display="none">
</g>
<g id="WHAT_OVER_single_01" display="none">
</g>
<g id="WHAT_OVER_ALL_copy_2" display="none">
</g>
<g id="WHY" display="none">
</g>
<g id="WHEN__x2F__WHERE">
</g>
<g id="Grid" display="none">
</g>
<g id="_x31_6_Col_Grid" display="none" opacity="0.1" enable-background="new    ">
</g>
</svg>
