<?xml version="1.0" encoding="utf-8"?>
<!-- Generator: Adobe Illustrator 18.0.0, SVG Export Plug-In . SVG Version: 6.00 Build 0)  -->
<!DOCTYPE svg PUBLIC "-//W3C//DTD SVG 1.1//EN" "http://www.w3.org/Graphics/SVG/1.1/DTD/svg11.dtd">
<svg version="1.1" xmlns="http://www.w3.org/2000/svg" xmlns:xlink="http://www.w3.org/1999/xlink" x="0px" y="0px"
	 viewBox="0 0 512 512" enable-background="new 0 0 512 512" xml:space="preserve">
<g id="Developer">
</g>
<g id="SIDE_BAR">
	<path fill="#808080" d="M256,0C114.6,0,0,114.6,0,256c0,141.4,114.6,256,256,256c141.4,0,256-114.6,256-256
		C512,114.6,397.4,0,256,0z M180.9,377.9h-52.3V212.3h52.3V377.9z M153.5,191.6h-0.4c-18.9,0-31.2-12.7-31.2-28.7
		c0-16.3,12.6-28.8,31.9-28.8s31.2,12.4,31.5,28.8C185.4,178.9,173.1,191.6,153.5,191.6z M390.1,377.9h-59.3v-85.8
		c0-22.4-9.3-37.7-29.7-37.7c-15.6,0-24.2,10.4-28.3,20.3c-1.5,3.6-1.3,8.6-1.3,13.5v89.6h-58.7c0,0,0.8-151.8,0-165.6h58.7v26
		c3.5-11.3,22.2-27.6,52.2-27.6c37.1,0,66.3,23.8,66.3,75.1V377.9z"/>
</g>
<g id="WHO" display="none">
</g>
<g id="WHAT" display="none">
</g>
<g id="WHAT_OVER_ALL_single_03" display="none">
</g>
<g id="WHAT_OVER_ALL_single_02" display="none">
</g>
<g id="WHAT_OVER_single_01" display="none">
</g>
<g id="WHAT_OVER_ALL_copy_2" display="none">
</g>
<g id="WHY" display="none">
</g>
<g id="WHEN__x2F__WHERE">
</g>
<g id="Grid" display="none">
</g>
<g id="_x31_6_Col_Grid" display="none" opacity="0.1" enable-background="new    ">
</g>
</svg>
