<?xml version="1.0" encoding="utf-8"?>
<!-- Generator: Adobe Illustrator 18.0.0, SVG Export Plug-In . SVG Version: 6.00 Build 0)  -->
<!DOCTYPE svg PUBLIC "-//W3C//DTD SVG 1.1//EN" "http://www.w3.org/Graphics/SVG/1.1/DTD/svg11.dtd">
<svg version="1.1" xmlns="http://www.w3.org/2000/svg" xmlns:xlink="http://www.w3.org/1999/xlink" x="0px" y="0px"
	 viewBox="0 0 512 512" enable-background="new 0 0 512 512" xml:space="preserve">
<g id="Developer">
</g>
<g id="SIDE_BAR">
	<path fill="#808080" d="M256,0C114.6,0,0,114.6,0,256c0,141.4,114.6,256,256,256s256-114.6,256-256C512,114.6,397.4,0,256,0z
		 M373.3,194.4c0.1,2.6,0.1,5.3,0.1,8.1c0,81.9-60.8,176.4-172.1,176.4c-34.1,0-65.9-10.3-92.7-27.9c4.7,0.6,9.6,0.9,14.4,0.9
		c28.3,0,54.4-9.9,75.1-26.5c-26.5-0.5-48.8-18.4-56.5-43.1c3.7,0.7,7.5,1.1,11.4,1.1c5.6,0,10.9-0.8,15.9-2.2
		c-27.7-5.7-48.5-30.8-48.5-60.8v-0.8c8.2,4.6,17.5,7.4,27.4,7.7c-16.2-11.1-26.9-30.1-26.9-51.6c0-11.4,3-22,8.2-31.2
		c29.8,37.6,74.4,62.2,124.7,64.8c-1-4.5-1.6-9.3-1.6-14.1c0-34.2,27.1-62,60.5-62c17.4,0,33.1,7.5,44.1,19.6
		c13.8-2.7,26.8-7.9,38.4-15c-4.5,14.5-14.1,26.6-26.6,34.3c12.2-1.5,23.9-4.8,34.7-9.8C395.3,174.7,385.1,185.6,373.3,194.4z"/>
</g>
<g id="WHO" display="none">
</g>
<g id="WHAT" display="none">
</g>
<g id="WHAT_OVER_ALL_single_03" display="none">
</g>
<g id="WHAT_OVER_ALL_single_02" display="none">
</g>
<g id="WHAT_OVER_single_01" display="none">
</g>
<g id="WHAT_OVER_ALL_copy_2" display="none">
</g>
<g id="WHY" display="none">
</g>
<g id="WHEN__x2F__WHERE">
</g>
<g id="Grid" display="none">
</g>
<g id="_x31_6_Col_Grid" display="none" opacity="0.1" enable-background="new    ">
</g>
</svg>
